<svg xml:space="preserve" width="512" height="200.884" xmlns="http://www.w3.org/2000/svg"><path style="fill:#383e41" d="M238.966 253.259v59.228H220.17V166.229h49.829c12.629 0 23.397 4.21 32.208 12.629 9.007 8.419 13.51 18.698 13.51 30.837 0 12.433-4.503 22.712-13.51 31.033-8.713 8.321-19.481 12.433-32.208 12.433h-31.033zm0-69.017v51.004h31.425c7.44 0 13.706-2.545 18.6-7.538 4.993-4.993 7.538-11.062 7.538-17.915 0-6.755-2.545-12.727-7.538-17.719-4.895-5.189-11.062-7.734-18.6-7.734h-31.425zM364.861 209.108c13.901 0 24.866 3.72 32.893 11.16 8.028 7.44 12.041 17.621 12.041 30.544v61.675H391.88v-13.901h-.783c-7.734 11.454-18.111 17.132-31.033 17.132-11.062 0-20.265-3.231-27.705-9.79-7.44-6.559-11.16-14.685-11.16-24.474 0-10.377 3.916-18.6 11.748-24.67 7.832-6.167 18.307-9.202 31.327-9.202 11.16 0 20.363 2.056 27.509 6.167v-4.307c0-6.559-2.545-12.041-7.734-16.642-5.189-4.601-11.258-6.853-18.209-6.853-10.475 0-18.796 4.405-24.866 13.314l-16.545-10.377c9.105-13.217 22.615-19.776 40.432-19.776zm-24.278 72.639c0 4.895 2.056 9.007 6.265 12.237 4.112 3.231 9.007 4.895 14.587 4.895 7.93 0 14.978-2.937 21.146-8.811 6.168-5.874 9.3-12.727 9.3-20.656-5.874-4.601-13.999-6.951-24.474-6.951-7.636 0-13.999 1.86-19.09 5.482-5.189 3.818-7.734 8.42-7.734 13.804zM512 212.338l-62.654 144.104h-19.384l23.299-50.417-41.312-93.687h20.46l29.761 71.856h.392l28.977-71.856z" transform="translate(0 -155.558)"/><path style="fill:#0085f7" d="M162.636 223.684H83.849v32.306l45.375.01c-1.84 10.749-7.763 19.912-16.838 26.021v.006l.01-.006-.817 19.309 27.827 1.641-.011.01h.001c15.771-14.596 24.807-36.173 24.807-61.665a99.043 99.043 0 0 0-1.567-17.632z" transform="translate(0 -155.558)"/><path style="fill:#00a94b" d="m112.395 282.021-.01.006c-7.517 5.067-17.196 8.031-28.517 8.031-21.88 0-40.441-14.743-47.088-34.616h-.003l.003.01-23.231-3.679-4.626 25.291c13.805 27.388 42.173 46.181 74.946 46.181 22.647 0 41.674-7.446 55.526-20.265a.052.052 0 0 0 .011-.01z" transform="translate(0 -155.558)"/><path style="fill:#fb0" d="M34.156 239.406c0-5.58.93-10.974 2.624-16.045l-7.254-21.616H8.918C3.211 213.072 0 225.857 0 239.406c0 13.549 3.221 26.334 8.918 37.661l.004-.003 27.858-21.613a50.546 50.546 0 0 1-2.624-16.045z" transform="translate(0 -155.558)"/><path style="fill:#ff4031" d="M83.868 155.558c-32.766 0-61.146 18.796-74.95 46.188l27.861 21.616c6.647-19.873 25.208-34.616 47.088-34.616 12.364 0 23.437 4.259 32.179 12.58l23.936-23.916c-14.537-13.541-33.49-21.852-56.114-21.852z" transform="translate(0 -155.558)"/></svg>