<svg width="155.323" height="96" viewBox="0 0 116.492 72" xmlns="http://www.w3.org/2000/svg"><path style="fill:none" d="M0 0h152.407v108H0z" transform="translate(-17.915 -18)"/><path style="fill:#ff5f00" d="M60.412 25.697h31.5v56.606h-31.5z" transform="translate(-17.915 -18)"/><path d="M382.208 306a35.938 35.938 0 0 1 13.75-28.303 36 36 0 1 0 0 56.606A35.938 35.938 0 0 1 382.208 306Z" transform="translate(-337.711 -270)" style="fill:#eb001b"/><path d="M454.203 306a35.999 35.999 0 0 1-58.245 28.303 36.005 36.005 0 0 0 0-56.606A35.999 35.999 0 0 1 454.203 306zM450.769 328.308v-1.16h.467v-.235h-1.19v.236h.468v1.159zm2.31 0v-1.398h-.364l-.42.962-.42-.962h-.365v1.398h.258v-1.054l.393.908h.267l.394-.91v1.056z" transform="translate(-337.711 -270)" style="fill:#f79e1b"/></svg>