<svg version="1.1" id="Layer_1" x="0" y="0" xml:space="preserve" width="1160.116" height="1112.35" xmlns="http://www.w3.org/2000/svg"><style type="text/css" id="style2">.st1,.st2{fill-rule:evenodd;clip-rule:evenodd;fill:#2790c3}.st2{fill:#002c8a}</style><g id="g10" transform="translate(-60.194 -56.65)"><path class="st1" d="M594.91 225.23h177.96c124.1 0 207.39 40.44 184.58 185.37-30.34 192.78-198.9 193.51-235.75 193.51h-19.55c-18.38-.5-31 11.99-34 31.06l-23.37 152.06c-5.38 20.08-14.37 27.45-36.08 27.45l-115.8-.41c-12.32 0-20.11-10.87-18.4-21.68l85.99-540.15c1.75-11.09 11.38-27.21 34.42-27.21z" id="path4"/><path class="st2" d="M452.15 56.65h237.76c124.1 0 231.45 46.18 208.07 194.79C868.53 438.93 736.69 477.2 624 477.69h-69.43c-18.38-.5-32.15 12.73-35.15 31.8L484.75 729.7H337.9c-11.31 0-20.11-10.87-18.4-21.68l98.24-624.14c1.74-11.1 11.37-27.23 34.41-27.23z" id="path6"/><path d="M772.87 225.23H594.91c-23.04 0-32.67 16.12-34.42 27.22l-40.3 253.15c4.16-16.95 17.28-28.37 34.38-27.91H624c112.69-.49 244.54-38.76 273.98-226.25.13-.84.26-1.69.39-2.52-32.45-17.18-75.69-23.69-125.5-23.69z" id="path8" style="fill-rule:evenodd;clip-rule:evenodd;fill:#001f6b"/></g><g id="g24" transform="translate(-60.194 -56.65)"><path class="st1" d="M853.45 944.38c-4.93 32.38-29.66 32.38-53.6 32.38h-13.6l9.57-60.47c.57-3.65 3.7-6.35 7.41-6.35h6.24c16.28 0 31.67 0 39.62 9.29 4.72 5.54 6.16 13.78 4.36 25.15zm-10.41-84.51h-90.25c-6.16 0-11.42 4.48-12.38 10.58l-36.5 231.39c-.72 4.56 2.82 8.69 7.42 8.69h46.31c4.3 0 7.99-3.15 8.66-7.42l10.36-65.58c.95-6.11 6.21-10.59 12.37-10.59h28.55c59.46 0 93.76-28.76 102.73-85.76 4.04-24.94.15-44.53-11.52-58.25-12.82-15.09-35.55-23.06-65.75-23.06z" id="path12"/><path class="st1" d="M1052.53 1027.44c-4.14 24.68-23.77 41.26-48.75 41.26-12.52 0-22.57-4.02-29.02-11.65-6.38-7.57-8.79-18.36-6.78-30.35 3.91-24.48 23.81-41.6 48.42-41.6 12.27 0 22.23 4.07 28.8 11.76 6.63 7.78 9.24 18.63 7.33 30.58zm60.23-84.1h-43.18c-3.71 0-6.87 2.68-7.4 6.34l-1.93 12.08-3.02-4.38c-9.36-13.58-30.2-18.12-51.04-18.12-47.75 0-88.52 36.16-96.46 86.9-4.12 25.31 1.74 49.5 16.09 66.37 13.2 15.53 32 21.99 54.43 21.99 38.48 0 59.8-24.74 59.8-24.74l-1.93 12.01c-.71 4.6 2.81 8.71 7.44 8.71h38.91c6.16 0 11.4-4.48 12.39-10.6l23.35-147.89c.72-4.54-2.82-8.67-7.45-8.67z" id="path14"/><path class="st1" d="m1163.7 866.22-37.04 235.62c-.71 4.56 2.81 8.69 7.42 8.69h37.23c6.19 0 11.43-4.48 12.39-10.59l36.52-231.38c.05-.32.08-.64.09-.96v-.52c-.15-3.94-3.4-7.22-7.49-7.22h-41.71c-3.68.01-6.84 2.7-7.41 6.36z" id="path16"/><path class="st2" d="M209.81 944.38c-4.93 32.38-29.67 32.38-53.6 32.38h-13.62l9.56-60.47c.56-3.65 3.73-6.35 7.43-6.35h6.24c16.3 0 31.67 0 39.61 9.29 4.73 5.54 6.19 13.78 4.38 25.15zm-10.41-84.51h-90.23c-6.18 0-11.43 4.48-12.39 10.58l-36.49 231.39c-.73 4.56 2.81 8.69 7.44 8.69h43.08c6.18 0 11.42-4.48 12.39-10.59l9.84-62.41c.94-6.11 6.21-10.59 12.37-10.59h28.57c59.44 0 93.74-28.76 102.7-85.76 4.04-24.94.18-44.53-11.51-58.25-12.82-15.09-35.57-23.06-65.77-23.06z" id="path18"/><path class="st2" d="M408.9 1027.44c-4.17 24.68-23.76 41.26-48.75 41.26-12.55 0-22.58-4.02-29.02-11.65-6.39-7.57-8.82-18.36-6.78-30.35 3.89-24.48 23.81-41.6 48.42-41.6 12.27 0 22.25 4.07 28.82 11.76 6.59 7.78 9.2 18.63 7.31 30.58zm60.24-84.1h-43.22c-3.68 0-6.86 2.68-7.42 6.34l-1.92 12.08-3.03-4.38c-9.35-13.58-30.21-18.12-51.03-18.12-47.75 0-88.54 36.16-96.48 86.9-4.13 25.31 1.74 49.5 16.09 66.37 13.17 15.53 32.01 21.99 54.43 21.99 38.48 0 59.82-24.74 59.82-24.74l-1.93 12.01c-.73 4.6 2.81 8.71 7.42 8.71h38.92c6.18 0 11.41-4.48 12.39-10.6l23.35-147.89c.75-4.54-2.78-8.67-7.39-8.67z" id="path20"/><path class="st2" d="M699.27 943.34h-43.42c-4.14 0-8.04 2.05-10.39 5.5l-59.89 88.21-25.39-84.77a12.58 12.58 0 0 0-12.04-8.94h-42.66c-5.19 0-8.79 5.06-7.14 9.95l47.83 140.36-44.97 63.47c-3.55 5.02.02 11.88 6.13 11.88h43.37c4.12 0 7.98-2.01 10.31-5.39l144.43-208.47c3.46-4.98-.09-11.8-6.17-11.8z" id="path22"/></g></svg>