<svg width="100%" height="100%" viewBox="0 0 25 25" fill="none" xmlns="http://www.w3.org/2000/svg">
<path d="M0.961538 8.33333C1.48718 8.33333 1.92308 7.89744 1.92308 7.37179V4.80769C1.92308 3.21795 3.21795 1.92308 4.80769 1.92308H7.37179C7.89744 1.92308 8.33333 1.48718 8.33333 0.961538C8.33333 0.435897 7.89744 0 7.37179 0H4.80769C2.15385 0 0 2.15385 0 4.80769V7.37179C0 7.89744 0.435897 8.33333 0.961538 8.33333Z" fill="currentColor"/>
<path d="M7.37179 23.0769H4.80769C3.21795 23.0769 1.92308 21.782 1.92308 20.1923V17.6282C1.92308 17.1026 1.48718 16.6667 0.961538 16.6667C0.435897 16.6667 0 17.1026 0 17.6282V20.1923C0 22.8461 2.15385 25 4.80769 25H7.37179C7.89744 25 8.33333 24.5641 8.33333 24.0385C8.33333 23.5128 7.89744 23.0769 7.37179 23.0769Z" fill="currentColor"/>
<path d="M24.0378 16.6667C23.5122 16.6667 23.0763 17.1026 23.0763 17.6282V20.1923C23.0763 21.782 21.7814 23.0769 20.1917 23.0769H17.6276C17.1019 23.0769 16.666 23.5128 16.666 24.0385C16.666 24.5641 17.1019 25 17.6276 25H20.1917C22.8455 25 24.9993 22.8461 24.9993 20.1923V17.6282C24.9993 17.1026 24.5635 16.6667 24.0378 16.6667Z" fill="currentColor"/>
<path d="M20.1917 0H17.6276C17.1019 0 16.666 0.435897 16.666 0.961538C16.666 1.48718 17.1019 1.92308 17.6276 1.92308H20.1917C21.7814 1.92308 23.0763 3.21795 23.0763 4.80769V7.37179C23.0763 7.89744 23.5122 8.33333 24.0378 8.33333C24.5635 8.33333 24.9993 7.89744 24.9993 7.37179V4.80769C24.9993 2.15385 22.8455 0 20.1917 0Z" fill="currentColor"/>
<rect x="5.55469" y="10.1852" width="14.8148" height="8.33333" rx="2.75" fill="currentColor"/>
<path d="M5.55469 7.4074C5.55469 7.91357 5.99269 8.33333 6.52087 8.33333H19.4033C19.9315 8.33333 20.3695 7.91357 20.3695 7.4074C20.3695 6.90123 19.9315 6.48148 19.4033 6.48148H6.52087C5.99269 6.48148 5.55469 6.90123 5.55469 7.4074Z" fill="currentColor"/>
</svg>
