<svg width="100%" height="100%" viewBox="0 0 27 23" fill="none" xmlns="http://www.w3.org/2000/svg">
<path d="M10 9L13 20L16 9H10Z" fill="currentColor"/>
<path d="M27 7C26.9134 6.818 26.8412 6.636 26.6968 6.468L22.1191 0.924C21.6426 0.336 20.9206 0 20.1408 0H15L18.6101 7H26.9856H27Z" fill="currentColor"/>
<path d="M16 7L13.5 2L11 7H16Z" fill="currentColor"/>
<path d="M12 0H6.85921C6.07942 0 5.37184 0.336 4.88087 0.924L0.303249 6.468C0.173285 6.636 0.0866426 6.818 0 7H8.37545L11.9856 0L12 0Z" fill="currentColor"/>
<path d="M15 23L26.6471 10.5381C26.7941 10.3682 26.8971 10.1841 27 10H18.6912L15.0147 23H15Z" fill="currentColor"/>
<path d="M0 10C0.102941 10.1841 0.191176 10.3824 0.352941 10.5381L12 23L8.30882 10H0V10Z" fill="currentColor"/>
</svg>
