<svg width="100%" height="100%" viewBox="0 0 26 18" fill="none" xmlns="http://www.w3.org/2000/svg">
<circle cx="13" cy="9" r="1" fill="currentColor"/>
<path fill-rule="evenodd" clip-rule="evenodd" d="M24.5067 1.05255C23.2267 0.559585 21.9333 0.266469 20.6533 0.106588V3.66395C20.6533 4.21021 20.2 4.66321 19.6533 4.66321C19.1067 4.66321 18.6533 4.21021 18.6533 3.66395V0H18.28C15.92 0.106588 14.24 0.759437 12.6267 1.39896L12.5641 1.42343C11.054 2.01402 9.62557 2.5727 7.61333 2.66469C6.10667 2.71799 4.57333 2.51813 3.04 2.03849C2.33333 1.81199 1.54667 1.94523 0.946667 2.3849C0.346667 2.82457 0 3.50407 0 4.25019V13.6432C0 14.416 0.373333 15.1221 0.986667 15.5618C3.16 17.0674 5.38667 17.8801 7.61333 18H8.13333C10.1467 18 11.6933 17.4138 13.32 16.7876L13.3745 16.7668C14.8244 16.2135 16.3336 15.6376 18.48 15.3087C18.5333 15.3087 18.6 15.3087 18.6667 15.2953V11.658C18.6667 11.1118 19.12 10.6588 19.6667 10.6588C20.2133 10.6588 20.6667 11.1118 20.6667 11.658V15.1088C21.6 15.0688 22.5467 15.0688 23.48 15.1488C24.12 15.1887 24.76 14.9889 25.24 14.5492C25.72 14.1095 26 13.4833 26 12.8305V3.2376C26 2.27831 25.4 1.39896 24.52 1.05255H24.5067ZM13 12.6667C11.0403 12.6667 9.45455 11.0267 9.45455 9C9.45455 6.97333 11.0403 5.33333 13 5.33333C14.9597 5.33333 16.5455 6.97333 16.5455 9C16.5455 11.0267 14.9597 12.6667 13 12.6667ZM19.303 10C19.9491 10 20.4848 9.54667 20.4848 9V6.33333C20.4848 5.78667 19.9491 5.33333 19.303 5.33333C18.657 5.33333 18.1212 5.78667 18.1212 6.33333V9C18.1212 9.54667 18.657 10 19.303 10Z" fill="currentColor"/>
</svg>
