<svg width="93" height="93" viewBox="0 0 93 93" fill="none" xmlns="http://www.w3.org/2000/svg">
<g opacity="0.85">
<g filter="url(#filter0_i_620_4022)">
<path d="M37.4999 75.6659C16.7893 75.6659 0 58.8767 0 38.1663C0 17.4558 16.7893 0.666664 37.4999 0.666664C58.2105 0.666664 74.9998 17.4558 74.9998 38.1663C75.0189 44.0324 73.6439 49.8192 70.9882 55.0498C70.7705 55.4774 70.2484 55.6489 69.8196 55.4335C69.3996 55.2094 69.2305 54.6944 69.4359 54.2649C76.6374 39.9833 73.478 22.6563 61.6993 11.8355C49.9206 1.01471 32.3883 -0.66736 18.7671 7.71657C5.14592 16.1005 -1.25032 32.5107 3.10438 47.901C7.45907 63.2913 21.5053 73.9175 37.4999 73.9217C41.0164 73.9303 44.5144 73.413 47.8778 72.3868C48.3594 72.2472 48.8631 72.5244 49.0028 73.006C49.1425 73.4877 48.8652 73.9913 48.3836 74.131C44.8504 75.1727 41.1834 75.6898 37.4999 75.6659V75.6659Z" fill="white"/>
</g>
<g filter="url(#filter1_i_620_4022)">
<path fill-rule="evenodd" clip-rule="evenodd" d="M37.3413 68.6537C37.5606 68.671 37.7808 68.671 38 68.6537C40.1857 68.6926 41.9913 66.9495 42.0387 64.7549V60.5427H42.3333C47.1198 60.5427 51 56.6464 51 51.84V42.8936C51 38.0872 47.1198 34.1908 42.3333 34.1908H33.6667C33.2904 34.1909 32.9827 33.8897 32.9733 33.512V24.5655C32.9733 24.3825 33.0469 24.2071 33.1774 24.0793C33.308 23.9515 33.4844 23.882 33.6667 23.8867H42.264C42.4463 23.882 42.6227 23.9515 42.7533 24.0793C42.8838 24.2071 42.9574 24.3825 42.9573 24.5655V25.5751C42.9541 26.7451 43.4607 27.858 44.344 28.621C45.2292 29.367 46.3902 29.6965 47.5333 29.5261C49.5237 29.2251 50.9968 27.5093 51 25.488V24.6352C51 19.8288 47.1198 15.9324 42.3333 15.9324H41.9693V11.8421C41.9987 9.84965 40.6054 8.12097 38.6587 7.73442C37.4868 7.5147 36.2787 7.83548 35.3681 8.6081C34.4576 9.38073 33.9411 10.5234 33.9613 11.7203V15.8802H33.6667C28.8802 15.8802 25 19.7766 25 24.583V33.4772C25 38.2836 28.8802 42.1799 33.6667 42.1799H42.3333C42.7096 42.1798 43.0173 42.481 43.0267 42.8587V51.753C43.0267 51.9361 42.9531 52.1114 42.8226 52.2392C42.692 52.367 42.5156 52.4365 42.3333 52.4318H33.632C33.4497 52.4365 33.2733 52.367 33.1428 52.2392C33.0122 52.1114 32.9386 51.9361 32.9387 51.753V50.9001C32.9737 48.9092 31.5759 47.1823 29.628 46.8098C28.4758 46.6151 27.2967 46.9401 26.4049 47.6981C25.513 48.4561 24.9991 49.5702 25 50.7434V51.753C25 56.5594 28.8802 60.4557 33.6667 60.4557H34.0307V64.546C34.0013 66.5385 35.3946 68.2672 37.3413 68.6537ZM27.6347 49.0725C28.0366 48.7314 28.547 48.5461 29.0733 48.5503L29.3853 48.5678C30.4948 48.8104 31.2744 49.8127 31.24 50.9523V51.8052C31.2495 53.1442 32.3332 54.2246 33.6667 54.2245H42.3333C43.6276 54.2262 44.6953 53.2076 44.76 51.9096V42.9632C44.7505 41.6242 43.6668 40.5438 42.3333 40.5438H33.6667C29.8375 40.5438 26.7333 37.4267 26.7333 33.5816V24.6352C26.7333 20.7901 29.8375 17.673 33.6667 17.673H34.8973C35.376 17.673 35.764 17.2833 35.764 16.8027V11.6855C35.7705 11.0254 36.0638 10.4012 36.5668 9.97628C37.0699 9.55141 37.7326 9.36831 38.3813 9.47497C39.5179 9.7051 40.3191 10.731 40.2707 11.8943V16.7505C40.2707 17.2311 40.6587 17.6207 41.1373 17.6207H42.2987C46.1278 17.6207 49.232 20.7378 49.232 24.583V25.4358C49.2663 26.5755 48.4868 27.5778 47.3773 27.8204C46.7246 27.9338 46.0554 27.7508 45.5501 27.3207C45.0448 26.8906 44.7554 26.2576 44.76 25.5925V24.583C44.7505 23.244 43.6668 22.1636 42.3333 22.1636H33.6667C32.3332 22.1636 31.2495 23.244 31.24 24.583V33.4772C31.2495 34.8162 32.3332 35.8966 33.6667 35.8965H42.3333C46.1625 35.8965 49.2667 39.0136 49.2667 42.8587V51.753C49.2667 55.5981 46.1625 58.7152 42.3333 58.7152H41.016C40.5374 58.7152 40.1493 59.1048 40.1493 59.5854V64.6679C40.1608 65.3396 39.8674 65.98 39.352 66.4084C38.876 66.8239 38.2422 67.0084 37.6187 66.9132C36.5361 66.6589 35.7776 65.6796 35.7987 64.5634V59.6551C35.7987 59.1744 35.4106 58.7848 34.932 58.7848H33.7707C31.9318 58.7848 30.1683 58.0513 28.8681 56.7456C27.5678 55.4399 26.8373 53.6691 26.8373 51.8226V50.8131C26.8357 50.1435 27.1273 49.507 27.6347 49.0725Z" fill="white"/>
</g>
<g filter="url(#filter2_i_620_4022)">
<path fill-rule="evenodd" clip-rule="evenodd" d="M57.3478 92.6667H88.6522C91.0534 92.6667 93 90.7226 93 88.3246V64.0088C93 61.6107 91.0534 59.6667 88.6522 59.6667H57.3478C56.1947 59.6667 55.0888 60.1241 54.2734 60.9384C53.4581 61.7527 53 62.8572 53 64.0088V88.3246C53 90.7226 54.9466 92.6667 57.3478 92.6667ZM54.7391 64.0088C54.7391 62.5699 55.9071 61.4035 57.3478 61.4035H88.6522C90.0929 61.4035 91.2609 62.5699 91.2609 64.0088V88.3246C91.2609 89.7634 90.0929 90.9298 88.6522 90.9298H57.3478C55.9071 90.9298 54.7391 89.7634 54.7391 88.3246V64.0088Z" fill="white"/>
</g>
<g filter="url(#filter3_i_620_4022)">
<path fill-rule="evenodd" clip-rule="evenodd" d="M58 60.782C58 61.2706 58.395 61.6667 58.8824 61.6667H87.1176C87.605 61.6667 88 61.2706 88 60.782V53.7051C88 45.3996 81.2843 38.6667 73 38.6667C64.7157 38.6667 58 45.3996 58 53.7051V60.782ZM86.2353 53.7051V59.8974H59.7647V53.7051C59.7647 46.3767 65.6903 40.4359 73 40.4359C80.3097 40.4359 86.2353 46.3767 86.2353 53.7051Z" fill="white"/>
</g>
<g filter="url(#filter4_i_620_4022)">
<path fill-rule="evenodd" clip-rule="evenodd" d="M65 60.7778C65 61.2687 65.398 61.6667 65.8889 61.6667H80.1111C80.602 61.6667 81 61.2687 81 60.7778V53.6667C81 49.2484 77.4183 45.6667 73 45.6667C68.5817 45.6667 65 49.2484 65 53.6667V60.7778ZM79.2222 53.6667V59.8889H66.7778V53.6667C66.7778 50.2302 69.5636 47.4444 73 47.4444C76.4364 47.4444 79.2222 50.2302 79.2222 53.6667Z" fill="white"/>
</g>
<g filter="url(#filter5_i_620_4022)">
<path fill-rule="evenodd" clip-rule="evenodd" d="M67.6518 84.9422C67.9718 85.3945 68.4885 85.6641 69.0402 85.6667H76.9598C77.5115 85.6641 78.0282 85.3945 78.3482 84.9422C78.6656 84.4906 78.7484 83.9133 78.5711 83.3897L76.6341 77.5077C78.6826 75.9385 79.5078 73.2291 78.6849 70.7743C77.862 68.3195 75.5745 66.6667 73 66.6667C70.4255 66.6667 68.138 68.3195 67.3151 70.7743C66.4922 73.2291 67.3174 75.9385 69.3659 77.5077L67.4289 83.3897C67.2516 83.9133 67.3344 84.4906 67.6518 84.9422ZM72.1429 68.4173C72.4279 68.3879 72.7151 68.3879 73 68.4173C74.008 68.4152 74.9847 68.7692 75.7598 69.4177C76.7248 70.2444 77.2822 71.4544 77.2854 72.7296C77.2843 74.2496 76.4816 75.6549 75.177 76.421C74.8281 76.628 74.6709 77.0524 74.7999 77.4387L76.9598 83.9417H69.0402L71.1315 77.3697C71.2606 76.9834 71.1033 76.559 70.7544 76.352C69.2119 75.4456 68.3935 73.6684 68.7032 71.8982C69.013 70.1279 70.3855 68.739 72.1429 68.4173Z" fill="white"/>
</g>
</g>
<defs>
<filter id="filter0_i_620_4022" x="-1" y="0.666664" width="76" height="75" filterUnits="userSpaceOnUse" color-interpolation-filters="sRGB">
<feFlood flood-opacity="0" result="BackgroundImageFix"/>
<feBlend mode="normal" in="SourceGraphic" in2="BackgroundImageFix" result="shape"/>
<feColorMatrix in="SourceAlpha" type="matrix" values="0 0 0 0 0 0 0 0 0 0 0 0 0 0 0 0 0 0 127 0" result="hardAlpha"/>
<feOffset dx="-1"/>
<feGaussianBlur stdDeviation="1"/>
<feComposite in2="hardAlpha" operator="arithmetic" k2="-1" k3="1"/>
<feColorMatrix type="matrix" values="0 0 0 0 0.190102 0 0 0 0 0.190102 0 0 0 0 0.190102 0 0 0 0.5 0"/>
<feBlend mode="normal" in2="shape" result="effect1_innerShadow_620_4022"/>
</filter>
<filter id="filter1_i_620_4022" x="25" y="7.66666" width="27" height="62" filterUnits="userSpaceOnUse" color-interpolation-filters="sRGB">
<feFlood flood-opacity="0" result="BackgroundImageFix"/>
<feBlend mode="normal" in="SourceGraphic" in2="BackgroundImageFix" result="shape"/>
<feColorMatrix in="SourceAlpha" type="matrix" values="0 0 0 0 0 0 0 0 0 0 0 0 0 0 0 0 0 0 127 0" result="hardAlpha"/>
<feOffset dx="1" dy="1"/>
<feGaussianBlur stdDeviation="1"/>
<feComposite in2="hardAlpha" operator="arithmetic" k2="-1" k3="1"/>
<feColorMatrix type="matrix" values="0 0 0 0 0.190102 0 0 0 0 0.190102 0 0 0 0 0.190102 0 0 0 0.5 0"/>
<feBlend mode="normal" in2="shape" result="effect1_innerShadow_620_4022"/>
</filter>
<filter id="filter2_i_620_4022" x="53" y="59.6667" width="40" height="35" filterUnits="userSpaceOnUse" color-interpolation-filters="sRGB">
<feFlood flood-opacity="0" result="BackgroundImageFix"/>
<feBlend mode="normal" in="SourceGraphic" in2="BackgroundImageFix" result="shape"/>
<feColorMatrix in="SourceAlpha" type="matrix" values="0 0 0 0 0 0 0 0 0 0 0 0 0 0 0 0 0 0 127 0" result="hardAlpha"/>
<feOffset dy="4"/>
<feGaussianBlur stdDeviation="1"/>
<feComposite in2="hardAlpha" operator="arithmetic" k2="-1" k3="1"/>
<feColorMatrix type="matrix" values="0 0 0 0 0.190102 0 0 0 0 0.190102 0 0 0 0 0.190102 0 0 0 0.5 0"/>
<feBlend mode="normal" in2="shape" result="effect1_innerShadow_620_4022"/>
</filter>
<filter id="filter3_i_620_4022" x="58" y="38.6667" width="32" height="25" filterUnits="userSpaceOnUse" color-interpolation-filters="sRGB">
<feFlood flood-opacity="0" result="BackgroundImageFix"/>
<feBlend mode="normal" in="SourceGraphic" in2="BackgroundImageFix" result="shape"/>
<feColorMatrix in="SourceAlpha" type="matrix" values="0 0 0 0 0 0 0 0 0 0 0 0 0 0 0 0 0 0 127 0" result="hardAlpha"/>
<feOffset dx="5" dy="4"/>
<feGaussianBlur stdDeviation="1"/>
<feComposite in2="hardAlpha" operator="arithmetic" k2="-1" k3="1"/>
<feColorMatrix type="matrix" values="0 0 0 0 0.190102 0 0 0 0 0.190102 0 0 0 0 0.190102 0 0 0 0.5 0"/>
<feBlend mode="normal" in2="shape" result="effect1_innerShadow_620_4022"/>
</filter>
<filter id="filter4_i_620_4022" x="64" y="45.6667" width="17" height="16" filterUnits="userSpaceOnUse" color-interpolation-filters="sRGB">
<feFlood flood-opacity="0" result="BackgroundImageFix"/>
<feBlend mode="normal" in="SourceGraphic" in2="BackgroundImageFix" result="shape"/>
<feColorMatrix in="SourceAlpha" type="matrix" values="0 0 0 0 0 0 0 0 0 0 0 0 0 0 0 0 0 0 127 0" result="hardAlpha"/>
<feOffset dx="-1"/>
<feGaussianBlur stdDeviation="1"/>
<feComposite in2="hardAlpha" operator="arithmetic" k2="-1" k3="1"/>
<feColorMatrix type="matrix" values="0 0 0 0 0.190102 0 0 0 0 0.190102 0 0 0 0 0.190102 0 0 0 0.5 0"/>
<feBlend mode="normal" in2="shape" result="effect1_innerShadow_620_4022"/>
</filter>
<filter id="filter5_i_620_4022" x="66" y="66.6667" width="13" height="19" filterUnits="userSpaceOnUse" color-interpolation-filters="sRGB">
<feFlood flood-opacity="0" result="BackgroundImageFix"/>
<feBlend mode="normal" in="SourceGraphic" in2="BackgroundImageFix" result="shape"/>
<feColorMatrix in="SourceAlpha" type="matrix" values="0 0 0 0 0 0 0 0 0 0 0 0 0 0 0 0 0 0 127 0" result="hardAlpha"/>
<feOffset dx="-1"/>
<feGaussianBlur stdDeviation="1"/>
<feComposite in2="hardAlpha" operator="arithmetic" k2="-1" k3="1"/>
<feColorMatrix type="matrix" values="0 0 0 0 0.190102 0 0 0 0 0.190102 0 0 0 0 0.190102 0 0 0 0.5 0"/>
<feBlend mode="normal" in2="shape" result="effect1_innerShadow_620_4022"/>
</filter>
</defs>
</svg>
